<svg id="Layer_1" height="512" viewBox="0 0 24 24" width="512" xmlns="http://www.w3.org/2000/svg" data-name="Layer 1" style="background-color:#FD6721"><path d="m11.52 13.89a4.3 4.3 0 1 1 4.3-4.3 4.3 4.3 0 0 1 -4.3 4.3zm0-6.69a2.39 2.39 0 1 0 2.39 2.39 2.39 2.39 0 0 0 -2.39-2.39z" fill="#fff"/><path d="m14.37 11.35h1.91v4.09h-1.91z" transform="matrix(.707 -.707 .707 .707 -4.98 14.76)" fill="#fff"/><path d="m12 22.87-3.26-3.26h-3.42a4.78 4.78 0 0 1 -4.77-4.77v-9.54a4.78 4.78 0 0 1 4.77-4.78h13.36a4.78 4.78 0 0 1 4.77 4.78v9.54a4.78 4.78 0 0 1 -4.77 4.77h-3.42zm-6.68-20.44a2.88 2.88 0 0 0 -2.87 2.87v9.54a2.88 2.88 0 0 0 2.87 2.87h4.21l2.47 2.46 2.47-2.46h4.21a2.88 2.88 0 0 0 2.87-2.87v-9.54a2.88 2.88 0 0 0 -2.87-2.87z" fill="#fff"/></svg>