<?xml version="1.0" encoding="iso-8859-1"?>
<!-- Generator: Adobe Illustrator 16.0.0, SVG Export Plug-In . SVG Version: 6.00 Build 0)  -->
<!DOCTYPE svg PUBLIC "-//W3C//DTD SVG 1.1//EN" "http://www.w3.org/Graphics/SVG/1.1/DTD/svg11.dtd">
<svg version="1.1" id="Capa_1" xmlns="http://www.w3.org/2000/svg" xmlns:xlink="http://www.w3.org/1999/xlink" x="0px" y="0px"
	 width="404.943px" height="404.943px" viewBox="0 0 404.943 404.943" style="enable-background:new 0 0 404.943 404.943;"
	 xml:space="preserve">
<g>
	<path d="M391.691,18.284H13.25C5.932,18.284,0,24.219,0,31.536v242.48c0,7.32,5.932,13.252,13.25,13.252h202.674v86.137
		c0,5.359,3.229,10.193,8.182,12.244c1.639,0.68,3.359,1.01,5.066,1.01c3.446,0,6.838-1.348,9.372-3.883l96.173-95.508h56.975
		c7.32,0,13.252-5.932,13.252-13.252V31.535C404.943,24.218,399.012,18.284,391.691,18.284z M202.472,250.071
		c-11.226,0-20.357-9.133-20.357-20.357c0-11.226,9.132-20.357,20.357-20.357s20.357,9.132,20.357,20.357
		C222.829,240.938,213.698,250.071,202.472,250.071z M223.797,153.233c-2.673,1.828-4.521,3.174-5.523,4.021v21.272
		c0,8.712-7.088,15.8-15.8,15.8c-8.714,0-15.802-7.088-15.802-15.8v-22.918c0-15.281,11.153-22.903,19.297-28.467
		c8.789-6.005,14.594-9.972,14.594-22.361c0-9.975-8.114-18.09-18.089-18.09c-9.976,0-18.09,8.115-18.09,18.09
		c0,8.713-7.089,15.801-15.802,15.801s-15.802-7.088-15.802-15.801c0-27.4,22.292-49.692,49.693-49.692
		c27.399,0,49.691,22.292,49.691,49.692C252.164,133.852,234.407,145.984,223.797,153.233z" fill="#388fd0"/>
</g>
<g>
</g>
<g>
</g>
<g>
</g>
<g>
</g>
<g>
</g>
<g>
</g>
<g>
</g>
<g>
</g>
<g>
</g>
<g>
</g>
<g>
</g>
<g>
</g>
<g>
</g>
<g>
</g>
<g>
</g>
</svg>
